<svg xmlns="http://www.w3.org/2000/svg" width="50" height="50" viewBox="0 0 50 50"><defs><style>.a{fill:#007a8a;}</style></defs><g transform="translate(-35.786 -32.425)"><g transform="translate(35.786 32.425)"><path class="a" d="M47.152,36.969a6.829,6.829,0,0,0-6.822,6.822V65.574l5.212-5.21a2.272,2.272,0,0,1,1.606-.666h25V36.969ZM38.058,73.333a2.271,2.271,0,0,1-2.272-2.272V43.791A11.379,11.379,0,0,1,47.152,32.425h27.27A2.271,2.271,0,0,1,76.694,34.7V61.97a2.271,2.271,0,0,1-2.272,2.272H48.09l-8.425,8.425a2.267,2.267,0,0,1-1.606.666" transform="translate(-35.786 -32.425)"/><path class="a" d="M314.612,197.985a2.267,2.267,0,0,1-1.606-.666l-8.427-8.426H287.336a2.272,2.272,0,0,1,0-4.544H305.52a2.271,2.271,0,0,1,1.606.665l5.213,5.212V159.348a2.272,2.272,0,1,1,4.544,0v36.365a2.271,2.271,0,0,1-2.272,2.272" transform="translate(-266.884 -147.985)"/></g></g></svg>