<svg xmlns="http://www.w3.org/2000/svg" width="26.979" height="26.979" viewBox="0 0 26.979 26.979"><defs><style>.a{fill:#a6a8b3;}.b{fill:#fff;}</style></defs><path class="a" d="M13.489,0A13.489,13.489,0,1,1,0,13.489,13.489,13.489,0,0,1,13.489,0Z"/><path class="b" d="M11.549,4.857,9.317,2.624a1.278,1.278,0,0,0-.9-.374H1.278A1.277,1.277,0,0,0,0,3.528V12.9a1.277,1.277,0,0,0,1.278,1.278h9.368A1.277,1.277,0,0,0,11.923,12.9V5.76a1.277,1.277,0,0,0-.374-.9ZM5.962,12.47a1.7,1.7,0,1,1,1.7-1.7A1.7,1.7,0,0,1,5.962,12.47Zm2.555-8.1V7.041A.319.319,0,0,1,8.2,7.36H2.023A.319.319,0,0,1,1.7,7.041V4.273a.319.319,0,0,1,.319-.319H8.1a.319.319,0,0,1,.226.094l.093.093a.319.319,0,0,1,.094.226Z" transform="translate(7.527 5.278)"/></svg>